HIERARCHY
ROOT root
{
	OFFSET	0	13.1	24.9
	CHANNELS 6  Xposition Yposition Zposition Xrotation Yrotation Zrotation
	JOINT spine_1
	{
		OFFSET	0	9.99999	0
		CHANNELS 3  Xrotation Yrotation Zrotation
		JOINT spine_2
		{
			OFFSET	0	112	-10
			CHANNELS 3  Xrotation Yrotation Zrotation
			JOINT spine_3
			{
				OFFSET	0	206.5	19.3
				CHANNELS 3  Xrotation Yrotation Zrotation
				JOINT spine_4
				{
					OFFSET	0	110.4	14.6
					CHANNELS 3  Xrotation Yrotation Zrotation
					JOINT neck_1
					{
						OFFSET	0	71.8	-50.3
						CHANNELS 3  Xrotation Yrotation Zrotation
						JOINT neck_2
						{
							OFFSET	0	86.2	-25.8
							CHANNELS 3  Xrotation Yrotation Zrotation
							JOINT head_ee
							{
								OFFSET	0	179.8	-8.7
								CHANNELS 3  Xrotation Yrotation Zrotation
								End Site
								{
									OFFSET	1	0	0
								}
							}
						}
					}
					JOINT left_clavicle
					{
						OFFSET	-43.2	22.4	-70.8
						CHANNELS 3  Xrotation Yrotation Zrotation
						JOINT left_shoulder
						{
							OFFSET	-93.9	-5.79999	48.7
							CHANNELS 3  Xrotation Yrotation Zrotation
							JOINT left_elbow
							{
								OFFSET	-291.4	-30.8	15.2
								CHANNELS 3  Xrotation Yrotation Zrotation
								JOINT left_lowarm_twist
								{
									OFFSET	-110.7	-3.89999	13.6
									CHANNELS 3  Xrotation Yrotation Zrotation
									JOINT left_hand
									{
										OFFSET	-110.7	-3.89999	13.6
										CHANNELS 3  Xrotation Yrotation Zrotation
										JOINT left_ee
										{
											OFFSET	-80.8	-5.10001	12.1
											CHANNELS 3  Xrotation Yrotation Zrotation
											End Site
											{
												OFFSET	1	0	0
											}
										}
									}
								}
							}
						}
					}
					JOINT right_clavicle
					{
						OFFSET	43.2	22.4	-70.8
						CHANNELS 3  Xrotation Yrotation Zrotation
						JOINT right_shoulder
						{
							OFFSET	93.9	-5.79999	48.7
							CHANNELS 3  Xrotation Yrotation Zrotation
							JOINT right_elbow
							{
								OFFSET	291.4	-30.8	15.2
								CHANNELS 3  Xrotation Yrotation Zrotation
								JOINT right_lowarm_twist
								{
									OFFSET	110.7	-3.89999	13.6
									CHANNELS 3  Xrotation Yrotation Zrotation
									JOINT right_hand
									{
										OFFSET	110.7	-3.89999	13.6
										CHANNELS 3  Xrotation Yrotation Zrotation
										JOINT right_ee
										{
											OFFSET	80.8	-5.10001	12.1
											CHANNELS 3  Xrotation Yrotation Zrotation
											End Site
											{
												OFFSET	1	0	0
											}
										}
									}
								}
							}
						}
					}
				}
			}
		}
	}
	JOINT left_hip
	{
		OFFSET	-82.8	-127.5	0.300001
		CHANNELS 3  Xrotation Yrotation Zrotation
		JOINT left_knee
		{
			OFFSET	-28.2	-396.7	2.2
			CHANNELS 3  Xrotation Yrotation Zrotation
			JOINT left_ankle
			{
				OFFSET	-11.7	-411.3	35.4
				CHANNELS 3  Xrotation Yrotation Zrotation
				JOINT left_toes
				{
					OFFSET	0	-60	-88.6
					CHANNELS 3  Xrotation Yrotation Zrotation
					JOINT left_foot_ee
					{
						OFFSET	-22.5	-16.5	-42.2
						CHANNELS 3  Xrotation Yrotation Zrotation
						End Site
						{
							OFFSET	1	0	0
						}
					}
				}
			}
		}
	}
	JOINT right_hip
	{
		OFFSET	82.8	-127.5	0.300001
		CHANNELS 3  Xrotation Yrotation Zrotation
		JOINT right_knee
		{
			OFFSET	28.2	-396.7	2.2
			CHANNELS 3  Xrotation Yrotation Zrotation
			JOINT right_ankle
			{
				OFFSET	11.7	-411.3	35.4
				CHANNELS 3  Xrotation Yrotation Zrotation
				JOINT right_toes
				{
					OFFSET	0	-60	-88.6
					CHANNELS 3  Xrotation Yrotation Zrotation
					JOINT right_foot_ee
					{
						OFFSET	22.5	-16.5	-42.2
						CHANNELS 3  Xrotation Yrotation Zrotation
						End Site
						{
							OFFSET	1	0	0
						}
					}
				}
			}
		}
	}
}
MOTION
Frames: 15
Frame Time: 0.02
2906.16392678 706.306 -1859.69442478 4.25436044287 32.8481046921 -3.66930621908 0.111018 0.168824 -0.519747 0.111145 0.201555 -0.507952 0.10936 0.302953 -0.454818 0.109143 0.227322 -0.496955 -7.01192 2.02607 5.28487 -6.93346 -0.0576201 5.69333 -0.0 0.0 -0.0 9.42134 -0.766875 18.4943 0.949669 4.24141 60.966 0.486218 -13.5424 0.0577304 -16.5827 -0.869653 1.92642 1.74133 -18.6753 3.65094 -0.0 0.0 -0.0 10.5954 13.0663 -21.0868 -21.0081 10.6922 -59.0084 0.366197 10.282 -0.0329466 -36.1465 2.55097 -3.77038 -0.74806 13.6095 10.8776 0.0 0.0 0.0 17.3919 -15.9007 11.0941 -30.5173 0.0239065 4.62826 3.29482 15.4984 -0.481963 37.9723 -0.0 -0.0 -0.0 0.0 -0.0 23.2544 10.3866 6.46658 -63.2753 2.56385 -8.87611 32.6749 9.74663 4.32522 3.67115 -0.0 -0.0 0.0 0.0 0.0 
2883.61585555 707.264 -1861.7743921 5.07697160132 35.118553761 -4.79068995395 0.0449713 -0.0333499 -0.410417 0.0450651 -0.00716665 -0.411707 0.0451589 0.0792073 -0.40408 0.0449312 0.014397 -0.411518 -7.39438 2.46856 6.20958 -7.28634 0.138308 6.69977 -0.0 0.0 -0.0 8.71984 -0.417507 17.0491 0.891511 -0.184597 61.3907 0.817276 -22.0406 0.159166 -16.2094 -0.844052 1.88607 1.83125 -20.3003 3.50143 -0.0 0.0 -0.0 10.3052 13.316 -20.4337 -21.1303 8.93125 -60.5974 0.324098 9.12111 -0.0258518 -36.1233 2.54863 -3.76856 -0.631806 13.1674 9.89544 0.0 0.0 0.0 15.1778 -16.0338 12.1067 -30.3091 0.032102 4.59737 3.08901 14.2708 -0.45098 38.3671 -0.0 -0.0 -0.0 0.0 -0.0 29.2163 6.93226 8.63637 -63.5639 2.59687 -8.90601 32.2573 11.0339 4.30993 2.85678 -0.0 -0.0 0.0 0.0 0.0 
2867.51299121 707.54 -1866.03629433 4.27054858711 35.8507496852 -3.70497487966 0.220878 -0.0933238 -0.728395 0.221171 -0.0467863 -0.732857 0.221902 0.105478 -0.726734 0.221165 -0.0106162 -0.734272 -7.88685 2.9481 6.30846 -7.77645 1.01972 6.89112 -0.0 0.0 -0.0 8.65317 -0.266313 16.9099 2.25427 -3.24124 61.2776 1.07303 -27.992 0.267465 -16.0273 -0.831658 1.86633 1.8071 -20.4639 3.26615 -0.0 0.0 -0.0 9.93285 12.9706 -19.6199 -21.8138 8.20185 -61.0303 0.346532 9.74077 -0.029528 -35.2878 2.46453 -3.7021 -0.495416 13.0737 8.9256 0.0 0.0 0.0 13.9897 -14.6216 11.1234 -29.5194 0.0621759 4.4799 2.69651 15.8487 -0.395368 37.6399 -0.0 -0.0 -0.0 0.0 -0.0 31.2766 5.41751 7.57752 -62.5633 2.48305 -8.80164 32.1306 9.43855 4.26241 3.09744 -0.0 -0.0 0.0 0.0 0.0 
2860.43070884 706.621 -1879.53316001 3.71116822744 35.4585256062 -3.50101914174 0.188334 -0.056215 -0.467277 0.188455 -0.0263673 -0.469907 0.188725 0.0714542 -0.46519 0.188424 -0.00290979 -0.470637 -7.14053 2.66966 4.69696 -7.08036 1.57601 5.23378 -0.0 0.0 -0.0 8.17892 0.450817 15.9369 2.58477 -6.26057 60.9081 1.35028 -33.7764 0.409961 -17.3539 -0.923389 2.00927 1.71616 -21.4367 2.21751 -0.0 0.0 -0.0 10.1439 12.628 -20.0965 -21.0027 5.5627 -61.6479 0.28064 7.91477 -0.0194146 -35.3154 2.46729 -3.70431 -0.43444 14.4509 9.09505 0.0 0.0 0.0 13.7279 -11.864 10.1576 -30.5309 0.0233652 4.63029 1.7762 13.0142 -0.259658 36.7798 -0.0 -0.0 -0.0 0.0 -0.0 33.6986 3.63726 7.89675 -60.5939 2.26446 -8.59055 30.9817 8.96153 4.13187 2.542 -0.0 -0.0 0.0 0.0 0.0 
2858.9753268 707.922 -1896.73614707 3.45909637174 36.7203098406 -2.71349924296 0.0229434 -0.142644 -0.419131 0.0230339 -0.115685 -0.427358 0.0239628 -0.0234669 -0.442117 0.0237017 -0.0929958 -0.432862 -6.35475 2.91249 2.56233 -6.33785 3.51656 3.13709 -0.0 0.0 -0.0 8.28629 0.961382 16.1395 2.37151 -9.10626 59.1302 1.79903 -41.7031 0.68529 -17.8163 -0.956135 2.05858 1.65651 -19.1462 2.87237 -0.0 0.0 -0.0 10.2578 11.7682 -20.3698 -21.3938 2.12456 -62.8024 0.348655 9.79929 -0.0298882 -34.0815 2.34484 -3.60401 0.10513 14.8155 5.59819 0.0 0.0 0.0 11.0849 -13.2114 8.87556 -26.4298 0.164174 4.01677 -2.67537 12.2123 0.394691 36.0919 -0.0 -0.0 -0.0 0.0 -0.0 35.9424 2.42147 6.66705 -59.3307 2.12815 -8.4513 28.9935 5.90062 3.86555 2.1171 -0.0 -0.0 0.0 0.0 0.0 
2843.4426851 708.831 -1907.54948221 2.73518307556 36.3909383889 -1.77877220517 0.073881 0.00334439 -0.661394 0.0741232 0.0454229 -0.659841 0.0736877 0.182282 -0.635789 0.0731327 0.0795857 -0.656597 -5.87832 2.92361 3.50327 -5.84589 2.80968 4.0805 -0.0 0.0 -0.0 8.72664 0.65959 17.0316 1.17488 -10.2286 57.0224 2.14842 -46.7772 0.929283 -18.5416 -1.00831 2.13542 1.12202 -14.9415 1.17958 -0.0 0.0 -0.0 10.5117 7.89997 -20.9608 -26.599 5.61644 -59.8726 0.514931 14.3101 -0.0646411 -32.2373 2.16594 -3.44926 0.646599 16.6501 2.74984 0.0 0.0 0.0 8.25979 -6.03237 6.94359 -23.8335 0.230463 3.62389 2.3984 12.363 -0.349758 34.965 -0.0 -0.0 -0.0 0.0 -0.0 37.6965 4.1968 4.47055 -55.5633 1.74043 -8.01882 27.291 1.79556 3.62873 1.88055 -0.0 -0.0 0.0 0.0 0.0 
2837.35334525 707.185 -1917.76273911 2.22270910825 36.5648830914 -1.12302579278 0.233411 -0.0632062 -0.722613 0.233702 -0.0170975 -0.72517 0.234037 0.132793 -0.713114 0.233327 0.0185061 -0.725136 -6.00225 2.80358 3.56185 -5.96862 2.55439 4.11832 -0.0 0.0 -0.0 8.82872 -3.34829 17.3289 4.31521 -11.9155 55.8621 1.77817 -41.3715 0.671456 -18.7704 -1.02497 2.15952 0.929529 -14.9591 -0.119498 -0.0 0.0 -0.0 10.1821 7.20521 -20.2397 -25.5298 4.00992 -60.7148 0.454632 12.6921 -0.0505621 -33.1143 2.25039 -3.52356 0.922419 17.6855 1.35862 0.0 0.0 0.0 7.14858 -4.02736 6.4269 -22.5145 0.257303 3.42325 3.23566 11.1513 -0.470217 35.032 -0.0 -0.0 -0.0 0.0 -0.0 38.7784 5.19575 2.57088 -50.895 1.301 -7.44956 26.1486 0.280376 3.48724 1.83529 -0.0 -0.0 0.0 0.0 0.0 
2832.45637873 707.632 -1933.94269359 1.33137002846 36.4990220686 0.270805473036 0.416589 -0.114586 -0.973141 0.417115 -0.0524332 -0.978459 0.418213 0.147331 -0.968724 0.416904 -0.0075019 -0.979834 -5.43551 2.88876 4.03181 -5.39213 2.31545 4.60677 -0.0 0.0 -0.0 9.51853 -7.33305 18.8089 5.93277 -13.1401 52.9512 1.55247 -37.5593 0.527917 -18.1296 -0.978554 2.09185 0.85404 -14.1764 -0.285943 -0.0 0.0 -0.0 10.3092 6.77255 -20.5116 -27.0503 4.49839 -60.524 0.439617 12.2859 -0.0473149 -31.6224 2.10742 -3.3964 0.724374 16.6962 2.24956 0.0 0.0 0.0 6.45637 -2.2149 5.09136 -21.4757 0.275184 3.26486 7.33213 10.954 -1.05279 34.8174 -0.0 -0.0 -0.0 0.0 -0.0 39.4103 6.64607 0.0380801 -44.7277 0.794604 -6.64706 24.6858 -0.812869 3.31152 2.28447 -0.0 -0.0 0.0 0.0 0.0 
2833.69266712 707.632 -1935.54453953 1.32681255265 36.2322525938 0.27849173775 0.416589 -0.114586 -0.973141 0.417115 -0.0524332 -0.978459 0.418213 0.147331 -0.968724 0.416904 -0.0075019 -0.979834 -5.43551 2.88876 4.03181 -5.39213 2.31545 4.60677 -0.0 0.0 -0.0 9.51853 -7.33305 18.8089 5.93277 -13.1401 52.9512 1.55247 -37.5593 0.527917 -18.1296 -0.978554 2.09185 0.85404 -14.1764 -0.285943 -0.0 0.0 -0.0 10.3092 6.77255 -20.5116 -27.0503 4.49839 -60.524 0.439617 12.2859 -0.0473149 -31.6224 2.10742 -3.3964 0.724374 16.6962 2.24956 0.0 0.0 0.0 6.45637 -2.2149 5.09136 -21.4757 0.275184 3.26486 7.33213 10.954 -1.05279 34.8174 -0.0 -0.0 -0.0 0.0 -0.0 39.4103 6.64607 0.0380801 -44.7277 0.794604 -6.64706 24.6858 -0.812869 3.31152 2.28447 -0.0 -0.0 0.0 0.0 0.0 
2817.40416292 701.871 -1957.2115257 -1.3282534628 37.2834657674 1.98631111404 0.793171 0.069155 -0.74162 0.79347 0.116205 -0.735717 0.792015 0.258625 -0.698498 0.791364 0.145067 -0.730574 -6.05884 1.29361 2.84019 -6.03647 0.299204 3.10795 -0.0 0.0 -0.0 10.246 -8.60429 20.3816 10.132 -15.4952 49.4007 1.62921 -38.9027 0.575411 -18.1727 -0.981653 2.09642 0.953869 -15.4705 -0.179368 -0.0 0.0 -0.0 10.2958 7.93442 -20.4898 -26.7049 -1.15888 -63.7067 0.348331 9.79036 -0.0298331 -32.7254 2.2128 -3.49077 0.819309 22.3158 4.07147 0.0 0.0 0.0 5.37208 0.657082 4.35825 -17.6955 0.315951 2.68638 10.5872 13.5889 -1.50935 37.7234 -0.0 -0.0 -0.0 0.0 -0.0 40.3174 6.21812 -1.97883 -29.0988 -0.0775261 -4.41719 23.3472 -2.98605 3.14386 0.395426 -0.0 -0.0 0.0 0.0 0.0 
2801.86022429 696.752 -1972.84031806 -2.83412783603 39.3239895614 3.38286001461 1.17158 0.0882728 -0.915948 1.17203 0.146376 -0.908476 1.16973 0.316503 -0.864052 1.16873 0.176076 -0.90319 -5.49086 0.533744 1.74478 -5.48214 -0.3157 1.86546 -0.0 0.0 -0.0 10.5862 -8.5873 21.1259 10.3985 -16.5489 50.2727 1.72639 -40.5337 0.637519 -16.9842 -0.897489 1.96964 1.0902 -18.1149 -0.429803 -0.0 0.0 -0.0 9.74931 7.04052 -19.3048 -26.2046 -2.3147 -65.0735 0.284104 8.01119 -0.0198944 -30.4775 1.99997 -3.29633 1.01729 22.2723 2.75181 0.0 0.0 0.0 5.45152 1.01654 3.80243 -17.9268 0.314553 2.72184 13.6977 14.6101 -1.93511 39.547 -0.0 -0.0 -0.0 0.0 -0.0 37.8963 7.72585 -2.43025 -14.2708 -0.319882 -2.16102 14.0762 -1.33821 1.98278 -2.39453 0.0 0.0 0.0 0.0 0.0 
2788.02162074 695.666 -1988.04272663 -3.7988374519 42.0181809156 4.26307292699 1.27715 0.0115044 -0.926808 1.27763 0.0704537 -0.924198 1.27653 0.243283 -0.894384 1.27542 0.0989845 -0.921579 -4.60899 0.221318 2.5271 -4.58915 -1.50815 2.62268 -0.0 0.0 -0.0 10.159 -7.02439 20.1886 10.2231 -17.5273 52.1839 1.91326 -43.4595 0.76259 -18.2021 -0.983768 2.09954 1.19502 -16.2093 1.1112 -0.0 0.0 -0.0 9.61172 3.5411 -18.9695 -26.2381 -3.9889 -64.5835 0.239409 6.76362 -0.0141473 -28.7094 1.83805 -3.13766 1.44381 28.0543 2.59656 0.0 0.0 0.0 3.74256 1.56075 3.52421 -14.4072 0.320326 2.18195 19.4685 20.609 -2.73938 38.3456 -0.0 -0.0 -0.0 0.0 -0.0 33.6253 7.68855 -3.05399 -2.04013 -0.0786083 -0.303205 5.91431 -4.52688 0.853529 -4.20905 0.0 0.0 0.0 0.0 0.0 
2791.80664851 695.666 -1992.60673887 -3.75919548245 41.3441351702 4.2034606131 1.27715 0.0115044 -0.926808 1.27763 0.0704537 -0.924198 1.27653 0.243283 -0.894384 1.27542 0.0989845 -0.921579 -4.60899 0.221318 2.5271 -4.58915 -1.50815 2.62268 -0.0 0.0 -0.0 10.159 -7.02439 20.1886 10.2231 -17.5273 52.1839 1.91326 -43.4595 0.76259 -18.2021 -0.983768 2.09954 1.19502 -16.2093 1.1112 -0.0 0.0 -0.0 9.61172 3.5411 -18.9695 -26.2381 -3.9889 -64.5835 0.239409 6.76362 -0.0141473 -28.7094 1.83805 -3.13766 1.44381 28.0543 2.59656 0.0 0.0 0.0 3.74256 1.56075 3.52421 -14.4072 0.320326 2.18195 19.4685 20.609 -2.73938 38.3456 -0.0 -0.0 -0.0 0.0 -0.0 33.6253 7.68855 -3.05399 -2.04013 -0.0786083 -0.303205 5.91431 -4.52688 0.853529 -4.20905 0.0 0.0 0.0 0.0 0.0 
2720.40159923 677.905 -2039.12496432 -7.08161091461 48.9285383289 6.43005789986 1.82417 -0.161397 -1.03307 1.82476 -0.0953372 -1.04124 1.82651 0.0924931 -1.0415 1.825 -0.0731441 -1.04304 -3.42068 0.535194 1.82411 -3.41099 -0.436864 1.96974 -0.0 0.0 -0.0 10.0619 -7.79678 19.9814 7.4927 -22.079 54.6987 1.97606 -44.3838 0.806157 -14.4256 -0.725372 1.69102 1.44884 -17.5164 2.22603 -0.0 0.0 -0.0 9.98314 2.36459 -19.7176 -26.1467 -1.9541 -63.4443 0.289719 8.1674 -0.0206845 -27.6089 1.73979 -3.03643 1.09151 25.7713 3.82398 0.0 0.0 0.0 -0.234006 1.63797 2.66916 -12.6214 0.310572 1.90813 26.5687 17.4365 -3.57501 39.146 -0.0 -0.0 -0.0 0.0 -0.0 34.9292 6.65007 -1.92287 -4.34052 -0.154218 -0.648129 -0.0801439 -5.6723 -0.0117441 -2.59136 0.0 0.0 0.0 0.0 0.0 
2723.28804377 677.905 -2042.66056211 -7.01941330836 48.4868576969 6.3472776941 1.82417 -0.161397 -1.03307 1.82476 -0.0953372 -1.04124 1.82651 0.0924931 -1.0415 1.825 -0.0731441 -1.04304 -3.42068 0.535194 1.82411 -3.41099 -0.436864 1.96974 -0.0 0.0 -0.0 10.0619 -7.79678 19.9814 7.4927 -22.079 54.6987 1.97606 -44.3838 0.806157 -14.4256 -0.725372 1.69102 1.44884 -17.5164 2.22603 -0.0 0.0 -0.0 9.98314 2.36459 -19.7176 -26.1467 -1.9541 -63.4443 0.289719 8.1674 -0.0206845 -27.6089 1.73979 -3.03643 1.09151 25.7713 3.82398 0.0 0.0 0.0 -0.234006 1.63797 2.66916 -12.6214 0.310572 1.90813 26.5687 17.4365 -3.57501 39.146 -0.0 -0.0 -0.0 0.0 -0.0 34.9292 6.65007 -1.92287 -4.34052 -0.154218 -0.648129 -0.0801439 -5.6723 -0.0117441 -2.59136 0.0 0.0 0.0 0.0 0.0 
